<svg width="40" height="40" viewBox="0 0 40 40" fill="none" xmlns="http://www.w3.org/2000/svg">
<path d="M36.2822 4.0463C35.8182 3.65152 35.2583 3.39279 34.662 3.29764C34.0656 3.20249 33.4552 3.27448 32.8957 3.50595L3.69214 15.5649C3.0676 15.8277 2.53597 16.2785 2.16782 16.8576C1.79967 17.4366 1.61241 18.1165 1.63089 18.8069C1.64936 19.4974 1.8727 20.1657 2.27127 20.7233C2.66983 21.2809 3.22477 21.7013 3.86243 21.9288L9.76967 24.03L13.0622 35.1661C13.107 35.3149 13.1719 35.4565 13.2551 35.5867C13.2678 35.6067 13.2856 35.6216 13.299 35.6411C13.3952 35.7783 13.5114 35.8996 13.6436 36.0007C13.6812 36.03 13.7172 36.0574 13.7573 36.0835C13.912 36.1884 14.0834 36.2652 14.2637 36.3103L14.283 36.312L14.2939 36.3168C14.4024 36.3393 14.5127 36.3508 14.6233 36.351C14.634 36.351 14.6434 36.3458 14.654 36.3456C14.821 36.3426 14.9865 36.3132 15.1446 36.2584C15.1814 36.2456 15.213 36.2241 15.2487 36.2086C15.3666 36.1586 15.4784 36.0946 15.5816 36.0177C15.6642 35.9465 15.7469 35.8752 15.8296 35.8041L20.233 30.8318L26.8007 36.0352C27.3789 36.4956 28.0906 36.7459 28.8233 36.7465C29.5912 36.7455 30.3353 36.4745 30.931 35.979C31.5267 35.4836 31.9378 34.7937 32.0953 34.0251L37.4121 7.33082C37.5326 6.73001 37.4911 6.10701 37.2921 5.52846C37.093 4.94992 36.744 4.43759 36.2822 4.0463V4.0463ZM15.2695 24.5606C15.0436 24.7908 14.8891 25.0841 14.8255 25.4037L14.3211 27.9104L13.0435 23.5886L19.6681 20.0604L15.2695 24.5606ZM28.7979 33.4001L21.0367 27.251C20.712 26.9944 20.3047 26.8723 19.8959 26.9091C19.4871 26.9459 19.1069 27.1389 18.831 27.4496L17.4208 29.0416L17.9192 26.5642L29.4615 14.7592C29.737 14.4778 29.9049 14.1047 29.9347 13.7077C29.9645 13.3106 29.8543 12.9158 29.624 12.5947C29.3937 12.2736 29.0586 12.0474 28.6793 11.9572C28.3001 11.867 27.9018 11.9187 27.5566 12.1029L10.9914 20.924L4.92229 18.6524L34.2197 6.66508L28.7979 33.4001Z" fill="black"/>
</svg>
